<?xml version="1.0" encoding="UTF-8" standalone="no"?>
<!-- Created with Inkscape (http://www.inkscape.org/) -->

<svg
   xmlns:dc="http://purl.org/dc/elements/1.1/"
   xmlns:cc="http://creativecommons.org/ns#"
   xmlns:rdf="http://www.w3.org/1999/02/22-rdf-syntax-ns#"
   xmlns:svg="http://www.w3.org/2000/svg"
   xmlns="http://www.w3.org/2000/svg"
   xmlns:sodipodi="http://sodipodi.sourceforge.net/DTD/sodipodi-0.dtd"
   xmlns:inkscape="http://www.inkscape.org/namespaces/inkscape"
   width="210mm"
   height="210mm"
   viewBox="0 0 210 210"
   version="1.1"
   id="svg8"
   inkscape:version="0.92.3 (2405546, 2018-03-11)"
   sodipodi:docname="pion-infecte.svg">
  <defs
     id="defs2">
    <clipPath
       id="clip1">
      <path
         id="path815"
         d="M 0,0 H 340.15625 V 340 H 0 Z m 0,0"
         inkscape:connector-curvature="0" />
    </clipPath>
    <clipPath
       id="clip1-0">
      <path
         id="path861"
         d="M 0 0 L 340.15625 0 L 340.15625 340.15625 L 0 340.15625 Z M 0 0 " />
    </clipPath>
    <clipPath
       id="clipPath909"
       clipPathUnits="userSpaceOnUse">
      <path
         inkscape:connector-curvature="0"
         id="path907"
         d="M 0,340.157 H 340.157 V 0 H 0 Z" />
    </clipPath>
  </defs>
  <sodipodi:namedview
     id="base"
     pagecolor="#ffffff"
     bordercolor="#666666"
     borderopacity="1.0"
     inkscape:pageopacity="0.0"
     inkscape:pageshadow="2"
     inkscape:zoom="0.35"
     inkscape:cx="20.758496"
     inkscape:cy="709.09592"
     inkscape:document-units="mm"
     inkscape:current-layer="layer1"
     showgrid="false"
     inkscape:pagecheckerboard="true"
     showborder="true"
     inkscape:window-width="1366"
     inkscape:window-height="705"
     inkscape:window-x="-8"
     inkscape:window-y="-8"
     inkscape:window-maximized="1" />
  <metadata
     id="metadata5">
    <rdf:RDF>
      <cc:Work
         rdf:about="">
        <dc:format>image/svg+xml</dc:format>
        <dc:type
           rdf:resource="http://purl.org/dc/dcmitype/StillImage" />
        <dc:title></dc:title>
      </cc:Work>
    </rdf:RDF>
  </metadata>
  <g
     inkscape:label="Calque 1"
     inkscape:groupmode="layer"
     id="layer1"
     transform="translate(0,-87)">
    <g
       transform="matrix(0.61736017,0,0,-0.61736017,0,297)"
       inkscape:label="pions"
       id="g899">
      <path
         inkscape:connector-curvature="0"
         id="path901"
         style="fill:#f7d448;fill-opacity:1;fill-rule:nonzero;stroke:none"
         d="M 0,0 H 340.158 V 340.158 H 0 Z" />
      <g
         id="g903">
        <g
           clip-path="url(#clipPath909)"
           id="g905">
          <g
             transform="translate(289.1039,219.4466)"
             id="g911">
            <path
               inkscape:connector-curvature="0"
               id="path913"
               style="fill:#100f0d;fill-opacity:1;fill-rule:nonzero;stroke:none"
               d="m 0,0 c 0,-23.94 -19.408,-43.347 -43.348,-43.347 -23.94,0 -43.347,19.407 -43.347,43.347 0,23.94 19.407,43.348 43.347,43.348 C -19.408,43.348 0,23.94 0,0" />
          </g>
          <g
             transform="translate(49.6552,225.0819)"
             id="g915">
            <path
               inkscape:connector-curvature="0"
               id="path917"
               style="fill:#100f0d;fill-opacity:1;fill-rule:nonzero;stroke:none"
               d="m 0,0 c -0.241,-1.849 -0.408,-3.721 -0.408,-5.635 0,-23.94 19.408,-43.347 43.348,-43.347 23.94,0 43.348,19.407 43.348,43.347 0,1.914 -0.167,3.786 -0.408,5.635 z" />
          </g>
          <path
             inkscape:connector-curvature="0"
             id="path919"
             style="fill:#100f0d;fill-opacity:1;fill-rule:nonzero;stroke:none"
             d="M 281.337,57.505 H 58.82 v 40.897 h 222.517 z" />
        </g>
      </g>
    </g>
  </g>
</svg>
