<?xml version="1.0" encoding="UTF-8" standalone="no"?>
<!-- Created with Inkscape (http://www.inkscape.org/) -->

<svg
   xmlns:dc="http://purl.org/dc/elements/1.1/"
   xmlns:cc="http://creativecommons.org/ns#"
   xmlns:rdf="http://www.w3.org/1999/02/22-rdf-syntax-ns#"
   xmlns:svg="http://www.w3.org/2000/svg"
   xmlns="http://www.w3.org/2000/svg"
   xmlns:sodipodi="http://sodipodi.sourceforge.net/DTD/sodipodi-0.dtd"
   xmlns:inkscape="http://www.inkscape.org/namespaces/inkscape"
   width="210mm"
   height="210mm"
   viewBox="0 0 210 210"
   version="1.1"
   id="svg8"
   inkscape:version="0.92.3 (2405546, 2018-03-11)"
   sodipodi:docname="pion-sain.svg">
  <defs
     id="defs2">
    <clipPath
       id="clip1">
      <path
         id="path815"
         d="M 0,0 H 340.15625 V 340 H 0 Z m 0,0"
         inkscape:connector-curvature="0" />
    </clipPath>
  </defs>
  <sodipodi:namedview
     id="base"
     pagecolor="#ffffff"
     bordercolor="#666666"
     borderopacity="1.0"
     inkscape:pageopacity="0.0"
     inkscape:pageshadow="2"
     inkscape:zoom="0.35"
     inkscape:cx="20.758496"
     inkscape:cy="709.09592"
     inkscape:document-units="mm"
     inkscape:current-layer="layer1"
     showgrid="false"
     inkscape:pagecheckerboard="true"
     showborder="true"
     inkscape:window-width="1366"
     inkscape:window-height="705"
     inkscape:window-x="-8"
     inkscape:window-y="-8"
     inkscape:window-maximized="1" />
  <metadata
     id="metadata5">
    <rdf:RDF>
      <cc:Work
         rdf:about="">
        <dc:format>image/svg+xml</dc:format>
        <dc:type
           rdf:resource="http://purl.org/dc/dcmitype/StillImage" />
        <dc:title></dc:title>
      </cc:Work>
    </rdf:RDF>
  </metadata>
  <g
     inkscape:label="Calque 1"
     inkscape:groupmode="layer"
     id="layer1"
     transform="translate(0,-87)">
    <g
       id="surface975"
       transform="matrix(0.61761158,0,0,0.61822239,-0.08443924,86.999999)">
      <g
         id="g822"
         clip-path="url(#clip1)"
         style="clip-rule:nonzero">
        <path
           id="path820"
           d="M 0.136719,339.68359 H 340.15625 V 0 H 0.136719 Z m 0,0"
           style="fill:#97dcd1;fill-opacity:1;fill-rule:nonzero;stroke:none"
           inkscape:connector-curvature="0" />
      </g>
      <path
         id="path824"
         d="m 136.68359,121.49219 c 0,23.95703 -19.42578,43.3789 -43.382809,43.3789 -23.960937,0 -43.382812,-19.42187 -43.382812,-43.3789 0,-23.96094 19.421875,-43.382815 43.382812,-43.382815 23.957029,0 43.382809,19.421875 43.382809,43.382815"
         style="fill:#0f0c0c;fill-opacity:1;fill-rule:nonzero;stroke:none"
         inkscape:connector-curvature="0" />
      <path
         id="path826"
         d="m 289.96484,121.49219 c 0,23.95703 -19.42187,43.3789 -43.3789,43.3789 -23.96094,0 -43.38282,-19.42187 -43.38282,-43.3789 0,-23.96094 19.42188,-43.382815 43.38282,-43.382815 23.95703,0 43.3789,19.421875 43.3789,43.382815"
         style="fill:#0f0c0c;fill-opacity:1;fill-rule:nonzero;stroke:none"
         inkscape:connector-curvature="0" />
      <path
         id="path828"
         d="m 80.675781,228.73437 c 10.539063,39.49219 46.453129,68.625 89.265629,68.625 42.8125,0 78.73046,-29.13281 89.26562,-68.625 z m 0,0"
         style="fill:#0f0c0c;fill-opacity:1;fill-rule:nonzero;stroke:none"
         inkscape:connector-curvature="0" />
    </g>
  </g>
</svg>
